<svg width="21" height="30" viewBox="0 0 21 30" fill="none" xmlns="http://www.w3.org/2000/svg">
<rect width="21" height="30" fill="#E5E5E5"/>
<g id="Abe" clip-path="url(#clip0_0_1)">
<path id="Background" fill-rule="evenodd" clip-rule="evenodd" d="M-121 -323C-121 -328.523 -116.523 -333 -111 -333H132C137.523 -333 142 -328.523 142 -323V27C142 32.5229 137.523 37 132 37H-111C-116.523 37 -121 32.5229 -121 27L-121 -323Z" fill="#4267B2"/>
<path id="Abe_2" d="M5.75821 13.7283C5.46139 13.7283 5.16457 13.8949 4.90073 14.0282C4.73584 14.0949 4.57094 14.1949 4.40604 14.2948C4.24114 14.3948 4.01028 14.5947 3.9773 14.2948C3.94432 14.0282 4.07624 13.695 4.1422 13.4618C4.24114 13.1952 4.40604 12.9952 4.60392 12.8286C4.86776 12.5954 5.16457 12.4621 5.49437 12.4287C6.28589 12.3288 7.737 12.662 8.42957 12.662C8.69341 12.662 8.95725 12.762 9.15513 12.9286C9.22109 12.9952 9.28705 13.0619 9.32003 13.1618C9.38599 13.2951 9.38599 13.4284 9.35301 13.5284C9.25407 13.7283 8.95725 13.795 8.75937 13.8283C8.42957 13.8949 8.09978 13.8616 7.80296 13.795C6.94548 13.4951 6.21993 13.7283 5.75821 13.7283ZM6.97846 14.9613C7.17634 14.8946 7.30826 14.7613 7.47316 14.6614C7.5721 14.6281 7.63806 14.5614 7.76998 14.5614C7.83594 14.5614 7.96786 14.6614 8.03382 14.6281C8.42957 14.5281 7.67104 14.1282 7.47316 14.0949C6.97846 14.0282 6.45079 13.9949 5.98907 14.1615C5.82417 14.2282 5.49437 14.3948 5.39543 14.5614C5.13159 14.9946 5.82417 14.6281 5.95609 14.6281C6.31887 14.6614 6.51674 14.9613 6.84654 14.9613C6.87952 14.9613 6.94548 14.9613 6.97846 14.9613ZM14.3659 13.9616C13.9702 13.8949 13.5744 13.8949 13.1787 14.0282C12.9808 14.0949 12.8159 14.1615 12.651 14.2615C12.585 14.2948 12.4201 14.4614 12.4201 14.5281C12.4201 14.828 13.0797 14.3948 13.1787 14.3948C13.3765 14.3948 13.5085 14.6614 13.7063 14.728C13.8053 14.7613 13.9042 14.728 13.9702 14.6947C14.0361 14.6281 14.1021 14.5614 14.1681 14.4948C14.333 14.3281 14.5968 14.2615 14.8277 14.3615C14.8277 14.1282 14.5638 13.9949 14.3659 13.9616ZM16.0149 12.6287C15.6851 12.2621 15.1574 12.0955 14.6957 12.1622C14.1681 12.2621 13.6074 12.3954 13.0467 12.4287C12.9808 12.4287 12.9478 12.4287 12.8818 12.4287C12.2882 12.4621 11.5627 13.0619 11.035 12.7953C10.8371 12.6953 10.6722 12.5953 10.4413 12.562C10.3424 12.762 10.5403 12.9952 10.7052 13.1618C10.969 13.4284 10.7382 13.595 10.4743 13.695C10.3094 13.7617 9.8477 13.8949 10.2764 14.0616C10.4413 14.1282 10.6062 14.0616 10.7382 14.1615C10.8371 14.2282 10.9031 14.3615 10.969 14.4948C11.068 14.7613 11.1009 15.0279 11.1669 15.2945C11.2658 15.8277 11.3318 16.3275 11.5297 16.8274C11.7605 17.4605 11.3978 17.4938 11.3978 18.127C11.3978 18.2269 11.4637 18.3602 11.5627 18.3935C11.6616 18.4269 11.7276 18.3935 11.8265 18.3602C13.3436 17.8271 11.068 14.3948 11.6946 14.2615C11.9584 14.2615 12.1893 14.0949 12.3871 13.8949C13.3765 13.0619 14.8277 12.9619 15.817 13.8283C15.9819 13.9616 16.3447 14.4948 16.5426 14.0949C16.6086 13.9616 16.5756 13.7617 16.5096 13.6284C16.4107 13.3285 16.2788 12.9286 16.0149 12.6287ZM8.82533 19.2933C8.75937 19.3266 8.69341 19.3932 8.69341 19.4599C8.69341 19.5599 8.82533 19.6598 8.92427 19.7265C9.08917 19.8264 9.28705 19.8598 9.51791 19.8598H9.58386C9.74876 19.8598 9.91366 19.8264 10.0126 19.9597C10.0456 20.0264 10.0786 20.093 10.0786 20.193C10.0786 20.2263 10.0786 20.293 10.0786 20.3263V20.3596L10.1115 20.3929C10.1445 20.4262 10.1775 20.4262 10.2105 20.4262C10.3094 20.4262 10.3754 20.3929 10.5073 20.293H10.5403C10.6062 20.2263 10.7052 20.1597 10.7711 20.193C10.8041 20.193 10.8371 20.2263 10.8701 20.2263C10.9031 20.2263 10.936 20.2596 10.969 20.2596C11.2329 20.3263 11.4637 20.093 11.5297 20.0264C11.5627 19.9931 11.6286 19.9597 11.7276 19.8931C11.9254 19.7931 12.1233 19.6598 12.1233 19.4932C12.1233 19.3932 12.0574 19.3266 11.9254 19.2599C11.8265 19.1933 11.6946 19.1933 11.5297 19.2266C11.3318 19.2599 11.1669 19.3266 11.002 19.3932C10.936 19.4266 10.8371 19.4599 10.7711 19.4932C10.4743 19.5932 10.2105 19.6265 10.0126 19.5598C9.91366 19.5265 9.8477 19.4932 9.74876 19.4266C9.61684 19.3599 9.48493 19.2933 9.35301 19.2599C9.18811 19.2266 8.95725 19.2266 8.82533 19.2933ZM7.11038 20.6262C7.2423 20.4596 7.34124 20.293 7.44018 20.1597C7.50614 20.0597 7.5721 19.9597 7.67104 19.8264C7.737 19.7265 7.83594 19.5932 7.9019 19.4932C8.00084 19.3266 8.13275 19.1267 8.26467 18.96L8.29766 18.8934C8.52851 18.6268 8.79235 18.3269 8.72639 18.0603C8.72639 18.027 8.69341 17.8937 8.59447 17.8604C8.46255 17.8271 8.36362 17.9937 8.2317 18.1603C8.19872 18.1936 8.19871 18.2269 8.16573 18.2269C8.03381 18.3935 7.9019 18.5268 7.76998 18.6935C7.5721 18.8934 7.37422 19.1267 7.20932 19.3599C7.0774 19.5265 6.97846 19.7598 6.84654 19.9264L6.81356 20.0264C6.78058 20.0597 6.7476 20.1263 6.71462 20.193C6.5827 20.3596 6.45078 20.5929 6.45078 20.7595C6.48376 20.8928 6.54972 20.8928 6.61568 20.9261H6.64866C6.64866 20.9261 6.68164 20.9261 6.71462 20.9261H6.74761H6.78058C6.87952 20.8928 6.94548 20.7595 7.01144 20.6595C7.0774 20.6928 7.0774 20.6595 7.11038 20.6262ZM13.6404 19.3599C13.5414 19.1933 13.4425 19.06 13.3106 18.8934C13.2116 18.7601 13.1127 18.6268 13.0138 18.4935C12.9808 18.4269 12.684 18.0603 12.4861 18.127C12.4201 18.127 12.3871 18.1936 12.3871 18.3602C12.3871 18.4935 12.552 18.7268 12.7169 18.96L12.7499 19.0267C12.7829 19.0933 12.9478 19.2599 13.1127 19.4932C13.2776 19.6931 13.4425 19.8931 13.5414 20.0264C13.6734 20.2263 13.8383 20.3596 14.0032 20.4929C14.0691 20.5595 14.1351 20.5595 14.1681 20.5595C14.201 20.5595 14.234 20.5262 14.267 20.5262C14.333 20.4596 14.3 20.3263 14.201 20.2263C14.0691 20.1263 13.7393 19.5265 13.6404 19.3599ZM12.4531 22.3257C12.2552 22.4256 12.0903 22.4923 11.8924 22.5256C11.7935 22.5589 11.6616 22.5589 11.5297 22.5922C11.3978 22.6256 11.2329 22.6256 11.1009 22.6922C10.8041 22.7922 10.5403 22.7589 10.2435 22.7589C10.1445 22.7589 10.0456 22.7589 9.94664 22.7255C9.8477 22.7255 9.71579 22.7255 9.61685 22.7255C9.45195 22.7255 9.25407 22.7255 9.08917 22.7255C9.05619 22.7255 9.02321 22.7255 8.95725 22.7255C8.59447 22.6922 8.2317 22.6256 8.0668 22.7589C8.03382 22.7922 8.00083 22.8588 8.00083 22.8921C8.00083 23.0588 8.2317 23.1587 8.46255 23.2587C8.66043 23.3253 8.85831 23.3587 9.02321 23.392C9.08917 23.392 9.18811 23.4253 9.25407 23.4253C9.55089 23.492 9.91366 23.5586 10.3094 23.5586C10.6062 23.5586 10.9031 23.5253 11.1669 23.392C11.4967 23.2587 11.8595 23.0588 12.2882 22.8588C12.3542 22.8255 12.3871 22.8255 12.4531 22.7922C12.552 22.7589 12.684 22.6922 12.7499 22.6256C12.7829 22.5922 12.8159 22.5589 12.8159 22.5256C12.8489 22.459 12.8489 22.3923 12.8159 22.3257C12.7499 22.259 12.585 22.259 12.4531 22.3257ZM12.8489 21.8258C12.651 21.7925 12.4201 21.7592 12.1893 21.7592C11.7935 21.6925 11.3978 21.6592 11.002 21.6592C10.9031 21.6592 10.7711 21.6925 10.6722 21.6925C10.4743 21.7258 10.2764 21.7592 10.1115 21.6925C10.0456 21.6592 10.0126 21.6592 9.94664 21.6259C9.68281 21.5259 9.38599 21.4259 9.08917 21.4593C8.89129 21.4926 8.72639 21.5259 8.56149 21.5592C8.42957 21.5926 8.33063 21.6259 8.19871 21.6259C8.09978 21.6259 8.00083 21.6592 7.93488 21.6925C7.83594 21.7258 7.76998 21.7258 7.67104 21.7592H7.60508C7.47316 21.7925 7.34124 21.7925 7.2423 21.8591C7.17634 21.8925 7.04442 21.9924 7.01144 22.1257C7.01144 22.1924 7.01144 22.2257 7.04442 22.259C7.0774 22.3257 7.14336 22.3257 7.20932 22.3257C7.30826 22.3257 7.47316 22.259 7.5721 22.2257C7.63806 22.1924 7.67104 22.1924 7.70402 22.1924L7.80296 22.159C8.03382 22.1257 8.26467 22.0591 8.49553 22.0258C8.66043 21.9924 8.85831 22.0258 9.05619 22.0258C9.15513 22.0258 9.22109 22.0258 9.32003 22.0258C9.88068 22.0591 10.5073 22.0924 11.1999 22.1257C11.3318 22.1257 11.4637 22.1257 11.5956 22.1257C11.6616 22.1257 11.7605 22.1257 11.8265 22.1257C11.8595 22.1257 11.9254 22.1257 11.9584 22.1257C11.9914 22.1257 12.0574 22.1257 12.0903 22.1257C12.3871 22.159 12.8159 22.1924 12.9808 22.0258C13.0138 21.9924 13.0467 21.9258 13.0138 21.8591C13.0138 21.8258 12.9808 21.7592 12.9478 21.7592C12.8818 21.8258 12.8489 21.8258 12.8489 21.8258ZM20.9949 13.8616C20.9619 14.0949 20.8959 14.2948 20.863 14.4948L20.5991 15.2945C20.1704 16.5941 19.7416 17.927 19.0161 19.0933L18.9501 19.2266C18.7852 19.4932 18.6203 19.7931 18.2576 19.9264C18.1586 19.9597 18.0597 19.9597 17.9937 19.9597C17.8288 19.9597 17.6969 19.9264 17.532 19.8598C17.565 19.9597 17.565 20.093 17.598 20.193C17.598 20.2596 17.6309 20.3263 17.6309 20.3596C17.7958 21.0594 17.7629 21.8258 17.532 22.5256C17.466 22.7255 17.3671 22.9588 17.3011 23.1587C17.1692 23.492 17.0373 23.7919 16.9713 24.1251C16.8064 25.0581 16.4107 25.658 15.883 26.4577L15.85 26.491C15.7181 26.691 15.6192 26.9242 15.4872 27.1242C15.3223 27.4574 15.1575 27.7906 14.8936 28.0905C14.1681 28.857 13.0797 29.79 11.8924 29.79C11.8595 29.79 11.8265 29.79 11.7935 29.79C10.8041 29.79 9.91366 29.8567 8.92427 29.9899C8.03381 30.0899 7.4072 29.4235 6.74761 28.9236C6.02205 28.3571 5.59331 27.524 5.19755 26.7243C4.53796 25.358 3.91134 23.8585 3.8124 22.159C3.8124 22.0258 3.8124 21.8925 3.8124 21.7592C3.8124 21.2926 3.77942 20.8261 3.61453 20.4262C3.61453 20.3929 3.61452 20.3929 3.58154 20.3596C3.51558 20.3929 3.44962 20.4263 3.38366 20.4596C3.3177 20.4929 3.21877 20.4929 3.11983 20.4929C2.92195 20.4929 2.69109 20.4263 2.49321 20.293C2.26235 20.1597 2.13043 19.9597 1.93255 19.7598C1.7017 19.4932 1.50382 19.2599 1.27296 19.0267C0.91018 18.6935 0.745279 18.2269 0.58038 17.7937C0.5474 17.6938 0.481443 17.5605 0.448463 17.4605C0.382503 17.2272 0.283562 16.994 0.250582 16.7607C0.118663 16.2942 0.0527045 15.8277 0.0197247 15.3612C-0.0132551 15.0613 -0.0132561 14.7613 0.0856833 14.4614C0.184623 14.1282 0.382504 13.795 0.712302 13.5617C0.745282 13.4951 0.745281 13.4617 0.778261 13.3951C1.14104 12.762 1.00912 11.5957 0.877201 10.496C0.844222 10.1294 0.778261 9.7629 0.778261 9.39634C0.679322 8.09675 1.27296 6.06405 1.63574 4.96439C1.76766 4.53119 2.19639 4.06467 2.62513 3.59815C2.95493 3.2316 3.25175 2.89837 3.41664 2.59846C3.74644 1.932 4.07624 1.39884 4.96669 0.965636C5.59331 0.66573 6.15397 0.66573 6.87952 0.632407C7.86892 0.632407 8.82533 0.532438 9.78174 0.299177C10.1445 0.199208 10.5403 0.0992383 11.068 0.0325923C12.3212 -0.167345 14.3 0.59908 15.0255 1.0656C15.6521 1.46548 15.9819 2.93169 16.0809 3.36489C16.5096 3.39821 17.9937 3.56483 18.8842 4.26461C19.9065 5.06436 19.5438 6.76383 19.3789 7.59691L19.3459 7.69688C19.181 8.4633 19.3459 9.06311 19.8406 9.72957C20.2363 10.2627 20.9289 12.4287 20.764 12.8619C20.8959 13.0952 21.0279 13.4617 20.9949 13.8616ZM3.35069 19.7265C3.08685 19.16 2.79003 18.5602 2.42725 17.8937C2.26235 17.5605 2.09745 17.2272 2.03149 16.8607C1.96553 16.4941 2.06447 16.1942 2.22937 15.861C2.32831 15.6944 2.39427 15.4945 2.42725 15.2945C2.52619 14.6281 1.93255 14.0282 1.27296 14.1615C1.00912 14.2282 0.712301 14.3615 0.613362 14.6614C0.547402 14.8613 0.58038 15.0613 0.58038 15.2612C0.61336 15.7277 0.712303 16.1942 0.811243 16.6274C0.877202 16.8607 0.943159 17.0606 1.00912 17.2939C1.17402 17.7271 1.30594 18.2603 1.66871 18.5602C1.93255 18.7934 2.16341 19.06 2.39427 19.3266C2.52619 19.4932 2.65811 19.6265 2.82301 19.7265C2.95493 19.8264 3.11982 19.8598 3.21876 19.8264C3.28472 19.7931 3.31771 19.7598 3.35069 19.7265ZM17.0043 14.8946C16.7075 13.8616 16.9384 12.7286 17.0043 11.6623C17.0373 11.2291 16.9054 10.4294 16.7735 9.72957C16.7075 9.39634 16.6415 9.02979 16.6086 8.69656C16.5756 8.29669 16.5096 7.93014 16.4107 7.53026C16.3117 7.13038 16.1139 6.76383 15.949 6.36396C15.7511 5.83079 14.9596 5.03104 13.9042 5.03104C13.0467 5.03104 12.4861 5.66417 11.7276 5.9974C10.936 6.36395 10.3094 6.26399 9.71578 6.19734C8.99023 6.09737 8.23169 6.09737 7.50614 6.03073C6.78058 5.96408 6.02205 5.9974 5.36245 6.29731C4.40604 6.76383 3.9773 7.36364 3.51558 7.99678C3.41665 8.16339 3.28473 8.29669 3.18579 8.4633C2.69109 9.09644 2.82301 12.2621 2.92195 13.3951C2.95493 13.6617 2.92195 13.9616 2.92195 14.2282C2.92195 14.4948 2.98791 14.7613 3.02089 15.0612C3.05387 15.4278 3.05386 15.7944 3.05386 16.1609V16.1942C3.08684 16.6941 3.35069 17.1606 3.51558 17.4605C4.07624 18.3935 4.50498 19.3266 4.96669 20.3596C5.19755 20.8594 5.42841 21.3926 5.69225 21.8925C5.82417 22.1257 5.95609 22.4256 6.15397 22.5589C6.45079 22.7589 6.78058 22.9255 7.11038 23.0588C7.37422 23.1921 7.67104 23.292 7.9019 23.4586C8.00084 23.5253 8.09977 23.5919 8.16573 23.6586C8.33063 23.7919 8.52851 23.9252 8.72639 23.9585C8.82533 23.9585 8.95725 23.9252 9.08917 23.8918C9.15513 23.8585 9.18811 23.8585 9.25407 23.8252C9.71578 23.6919 10.1775 23.7585 10.6392 23.8585C10.936 23.8918 11.2329 23.9585 11.4967 23.9585C12.0903 23.9585 12.7169 23.6586 13.2446 23.4253C13.6074 23.2587 14.0032 23.0921 14.267 22.7922C14.7287 22.259 14.7947 21.5259 14.8277 20.7595C14.8936 19.9264 14.9266 19.06 15.5862 18.4269C15.7181 18.2936 15.883 18.1603 16.0479 18.0603C16.1139 18.027 16.1798 17.9937 16.2128 17.9604C16.5096 17.7604 16.7735 17.4938 16.9713 17.1939C17.1692 16.894 17.2352 16.6608 17.3011 16.2942C17.4331 15.761 17.1362 15.3612 17.0043 14.8946ZM20.4342 13.795C20.4672 13.4618 20.3023 13.1285 20.0055 12.9286C19.7087 12.7286 19.4448 12.6953 19.115 12.8619C18.5873 13.0952 18.2576 13.9616 18.2576 14.4948C18.2576 14.8613 18.2905 15.2612 18.3895 15.5944C18.4884 15.8943 18.4224 16.1942 18.3895 16.4941C18.3235 16.8274 18.0597 17.0606 17.9937 17.3605C17.9607 17.5605 17.9278 17.7604 17.8948 17.927C17.8288 18.2603 17.7629 18.5602 17.6639 18.8934L17.6309 18.9934C17.598 19.06 17.598 19.1267 17.565 19.1933C17.7629 19.2933 17.9278 19.3599 18.0927 19.3266C18.2246 19.2933 18.3565 19.0933 18.4554 18.8934L18.5544 18.7601C19.2469 17.6271 19.6757 16.3275 20.0714 15.0946L20.3353 14.2948C20.3683 14.1282 20.4342 13.9616 20.4342 13.795Z" fill="#6F84D5"/>
</g>
<defs>
<clipPath id="clip0_0_1">
<rect width="263" height="370" fill="white" transform="translate(-121 -333)"/>
</clipPath>
</defs>
</svg>
