<svg width="31" height="44" viewBox="0 0 31 44" fill="none" xmlns="http://www.w3.org/2000/svg">
<rect width="31" height="44" fill="#E5E5E5"/>
<g id="Abe" clip-path="url(#clip0_0_1)">
<path id="Background" fill-rule="evenodd" clip-rule="evenodd" d="M-116 -85C-116 -90.5229 -111.523 -95 -106 -95H137C142.523 -95 147 -90.5228 147 -85V265C147 270.523 142.523 275 137 275H-106C-111.523 275 -116 270.523 -116 265L-116 -85Z" fill="#4267B2"/>
<path id="Vector" d="M8.50022 20.1349C8.06206 20.1349 7.62389 20.3793 7.23442 20.5748C6.991 20.6725 6.74757 20.8191 6.50415 20.9657C6.26073 21.1124 5.91994 21.4056 5.87125 20.9657C5.82257 20.5748 6.01731 20.086 6.11467 19.7439C6.26073 19.3529 6.50415 19.0597 6.79626 18.8153C7.18574 18.4732 7.6239 18.2777 8.11074 18.2288C9.27917 18.0822 11.4213 18.5709 12.4437 18.5709C12.8331 18.5709 13.2226 18.7176 13.5147 18.9619C13.6121 19.0597 13.7095 19.1574 13.7581 19.304C13.8555 19.4995 13.8555 19.695 13.8068 19.8416C13.6608 20.1349 13.2226 20.2326 12.9305 20.2815C12.4437 20.3793 11.9568 20.3304 11.5187 20.2326C10.2529 19.7928 9.1818 20.1349 8.50022 20.1349ZM10.3015 21.9432C10.5936 21.8455 10.7884 21.65 11.0318 21.5033C11.1779 21.4545 11.2752 21.3567 11.47 21.3567C11.5673 21.3567 11.7621 21.5034 11.8594 21.4545C12.4437 21.3079 11.3239 20.7214 11.0318 20.6725C10.3015 20.5747 9.52259 20.5259 8.84101 20.7702C8.59758 20.868 8.11074 21.1124 7.96468 21.3567C7.57521 21.9921 8.59758 21.4545 8.79232 21.4545C9.32785 21.5034 9.61995 21.9432 10.1068 21.9432C10.1555 21.9432 10.2529 21.9432 10.3015 21.9432ZM21.2069 20.477C20.6226 20.3793 20.0384 20.3793 19.4542 20.5748C19.1621 20.6725 18.9187 20.7702 18.6753 20.9169C18.5779 20.9657 18.3345 21.2101 18.3345 21.3079C18.3345 21.7477 19.3082 21.1124 19.4542 21.1124C19.7463 21.1124 19.9411 21.5033 20.2332 21.6011C20.3792 21.65 20.5253 21.6011 20.6226 21.5522C20.72 21.4545 20.8174 21.3567 20.9147 21.259C21.1582 21.0146 21.5476 20.9169 21.8884 21.0635C21.8884 20.7214 21.499 20.5259 21.2069 20.477ZM23.6411 18.5221C23.1542 17.9844 22.3753 17.7401 21.6937 17.8378C20.9147 17.9844 20.0871 18.1799 19.2595 18.2288C19.1621 18.2288 19.1134 18.2288 19.0161 18.2288C18.1397 18.2777 17.0687 19.1574 16.2897 18.7664C15.9976 18.6198 15.7542 18.4732 15.4134 18.4243C15.2674 18.7175 15.5595 19.0597 15.8029 19.304C16.1924 19.695 15.8516 19.9394 15.4621 20.086C15.2187 20.1838 14.5371 20.3793 15.17 20.6236C15.4134 20.7214 15.6568 20.6236 15.8516 20.7702C15.9976 20.868 16.095 21.0635 16.1924 21.259C16.3384 21.65 16.3871 22.041 16.4845 22.432C16.6305 23.2139 16.7279 23.947 17.02 24.6801C17.3608 25.6087 16.8253 25.6576 16.8253 26.5862C16.8253 26.7328 16.9226 26.9283 17.0687 26.9772C17.2147 27.0261 17.3121 26.9772 17.4582 26.9283C19.6976 26.1464 16.3384 21.1124 17.2634 20.9169C17.6529 20.9169 17.9937 20.6725 18.2858 20.3793C19.7463 19.1574 21.8884 19.0108 23.349 20.2815C23.5924 20.477 24.1279 21.259 24.42 20.6725C24.5174 20.477 24.4687 20.1838 24.3713 19.9883C24.2253 19.5484 24.0306 18.9619 23.6411 18.5221ZM13.0279 28.2968C12.9305 28.3457 12.8331 28.4434 12.8331 28.5412C12.8331 28.6878 13.0279 28.8344 13.1739 28.9321C13.4173 29.0788 13.7095 29.1276 14.0502 29.1276H14.1476C14.391 29.1276 14.6345 29.0788 14.7805 29.2743C14.8292 29.372 14.8779 29.4698 14.8779 29.6164C14.8779 29.6653 14.8779 29.763 14.8779 29.8119V29.8608L14.9266 29.9096C14.9752 29.9585 15.0239 29.9585 15.0726 29.9585C15.2187 29.9585 15.316 29.9096 15.5108 29.763H15.5595C15.6568 29.6653 15.8029 29.5675 15.9003 29.6164C15.9489 29.6164 15.9976 29.6653 16.0463 29.6653C16.095 29.6653 16.1437 29.7141 16.1924 29.7141C16.5818 29.8119 16.9226 29.4698 17.02 29.372C17.0687 29.3231 17.166 29.2743 17.3121 29.1765C17.6042 29.0299 17.8963 28.8344 17.8963 28.59C17.8963 28.4434 17.7989 28.3457 17.6042 28.2479C17.4582 28.1502 17.2634 28.1502 17.02 28.199C16.7279 28.2479 16.4845 28.3457 16.241 28.4434C16.1437 28.4923 15.9976 28.5412 15.9003 28.59C15.4621 28.7367 15.0726 28.7855 14.7805 28.6878C14.6345 28.6389 14.5371 28.59 14.391 28.4923C14.1963 28.3945 14.0016 28.2968 13.8068 28.2479C13.5634 28.199 13.2226 28.199 13.0279 28.2968ZM10.4963 30.2517C10.691 30.0074 10.8371 29.763 10.9831 29.5675C11.0805 29.4209 11.1779 29.2743 11.3239 29.0788C11.4213 28.9321 11.5673 28.7367 11.6647 28.59C11.8108 28.3457 12.0055 28.0524 12.2002 27.8081L12.2489 27.7103C12.5897 27.3193 12.9792 26.8795 12.8818 26.4885C12.8818 26.4396 12.8331 26.2441 12.6871 26.1952C12.4923 26.1464 12.3463 26.3907 12.1516 26.6351C12.1029 26.684 12.1029 26.7328 12.0542 26.7328C11.8594 26.9772 11.6647 27.1727 11.47 27.4171C11.1779 27.7103 10.8858 28.0524 10.6423 28.3945C10.4476 28.6389 10.3015 28.981 10.1068 29.2254L10.0581 29.372C10.0094 29.4209 9.96075 29.5186 9.91206 29.6164C9.71733 29.8608 9.52259 30.2029 9.52259 30.4472C9.57127 30.6427 9.66864 30.6427 9.76601 30.6916H9.8147C9.8147 30.6916 9.86338 30.6916 9.91206 30.6916H9.96075H10.0094C10.1555 30.6427 10.2529 30.4472 10.3502 30.3006C10.4476 30.3495 10.4476 30.3006 10.4963 30.2517ZM20.1358 28.3945C19.9897 28.1502 19.8437 27.9547 19.649 27.7103C19.5029 27.5148 19.3568 27.3193 19.2108 27.1238C19.1621 27.0261 18.7239 26.4885 18.4318 26.5862C18.3345 26.5862 18.2858 26.684 18.2858 26.9283C18.2858 27.1238 18.5292 27.4659 18.7726 27.8081L18.8213 27.9058C18.87 28.0036 19.1134 28.2479 19.3568 28.59C19.6003 28.8833 19.8437 29.1765 19.9897 29.372C20.1845 29.6653 20.4279 29.8607 20.6713 30.0562C20.7687 30.154 20.8661 30.154 20.9147 30.154C20.9634 30.154 21.0121 30.1051 21.0608 30.1051C21.1582 30.0074 21.1095 29.8119 20.9634 29.6653C20.7687 29.5186 20.2819 28.6389 20.1358 28.3945ZM18.3832 32.7443C18.0911 32.8909 17.8476 32.9887 17.5555 33.0375C17.4095 33.0864 17.2147 33.0864 17.02 33.1353C16.8253 33.1842 16.5818 33.1842 16.3871 33.2819C15.9489 33.4285 15.5595 33.3797 15.1213 33.3797C14.9752 33.3797 14.8292 33.3797 14.6831 33.3308C14.5371 33.3308 14.3424 33.3308 14.1963 33.3308C13.9529 33.3308 13.6608 33.3308 13.4173 33.3308C13.3687 33.3308 13.32 33.3308 13.2226 33.3308C12.6871 33.2819 12.1516 33.1842 11.9081 33.3797C11.8594 33.4285 11.8108 33.5263 11.8108 33.5751C11.8108 33.8195 12.1515 33.9661 12.4923 34.1128C12.7844 34.2105 13.0766 34.2594 13.32 34.3083C13.4173 34.3083 13.5634 34.3571 13.6608 34.3571C14.0989 34.4549 14.6345 34.5526 15.2187 34.5526C15.6568 34.5526 16.095 34.5037 16.4845 34.3083C16.9713 34.1128 17.5068 33.8195 18.1397 33.5263C18.2371 33.4774 18.2858 33.4774 18.3832 33.4285C18.5292 33.3797 18.7239 33.2819 18.8213 33.1842C18.87 33.1353 18.9187 33.0864 18.9187 33.0375C18.9674 32.9398 18.9674 32.842 18.9187 32.7443C18.8213 32.6465 18.5779 32.6465 18.3832 32.7443ZM18.9674 32.0112C18.6753 31.9623 18.3345 31.9134 17.9937 31.9134C17.4095 31.8157 16.8253 31.7668 16.241 31.7668C16.095 31.7668 15.9003 31.8157 15.7542 31.8157C15.4621 31.8646 15.17 31.9134 14.9266 31.8157C14.8292 31.7668 14.7805 31.7668 14.6831 31.718C14.2937 31.5713 13.8555 31.4247 13.4173 31.4736C13.1252 31.5225 12.8818 31.5713 12.6384 31.6202C12.4437 31.6691 12.2976 31.718 12.1029 31.718C11.9568 31.718 11.8108 31.7668 11.7134 31.8157C11.5673 31.8646 11.47 31.8646 11.3239 31.9134H11.2265C11.0318 31.9623 10.8371 31.9623 10.691 32.0601C10.5936 32.1089 10.3989 32.2556 10.3502 32.4511C10.3502 32.5488 10.3502 32.5977 10.3989 32.6465C10.4476 32.7443 10.545 32.7443 10.6423 32.7443C10.7884 32.7443 11.0318 32.6465 11.1779 32.5977C11.2752 32.5488 11.3239 32.5488 11.3726 32.5488L11.5187 32.4999C11.8594 32.4511 12.2002 32.3533 12.541 32.3044C12.7844 32.2556 13.0766 32.3044 13.3687 32.3044C13.5147 32.3044 13.6121 32.3044 13.7581 32.3044C14.5858 32.3533 15.5108 32.4022 16.5331 32.4511C16.7279 32.4511 16.9226 32.4511 17.1174 32.4511C17.2147 32.4511 17.3608 32.4511 17.4582 32.4511C17.5068 32.4511 17.6042 32.4511 17.6529 32.4511C17.7016 32.4511 17.7989 32.4511 17.8476 32.4511C18.2858 32.4999 18.9187 32.5488 19.1621 32.3044C19.2108 32.2556 19.2595 32.1578 19.2108 32.0601C19.2108 32.0112 19.1621 31.9134 19.1134 31.9134C19.0161 32.0112 18.9674 32.0112 18.9674 32.0112ZM30.9924 20.3304C30.9437 20.6725 30.8464 20.9657 30.7977 21.259L30.4082 22.432C29.7753 24.338 29.1424 26.293 28.0714 28.0035L27.974 28.199C27.7306 28.59 27.4872 29.0299 26.9516 29.2254C26.8056 29.2743 26.6595 29.2743 26.5621 29.2743C26.3187 29.2743 26.124 29.2254 25.8806 29.1276C25.9292 29.2743 25.9292 29.4698 25.9779 29.6164C25.9779 29.7141 26.0266 29.8119 26.0266 29.8608C26.27 30.8871 26.2214 32.0112 25.8806 33.0375C25.7832 33.3308 25.6371 33.6729 25.5398 33.9661C25.345 34.4549 25.1503 34.8947 25.0529 35.3835C24.8095 36.7519 24.2253 37.6317 23.4463 38.8046L23.3977 38.8535C23.2029 39.1468 23.0569 39.4889 22.8621 39.7821C22.6187 40.2708 22.3753 40.7596 21.9858 41.1994C20.9148 42.3235 19.3082 43.692 17.5555 43.692C17.5068 43.692 17.4582 43.692 17.4095 43.692C15.9489 43.692 14.6345 43.7898 13.1739 43.9853C11.8594 44.1319 10.9344 43.1544 9.96075 42.4213C8.88969 41.5904 8.25679 40.3686 7.67258 39.1956C6.69889 37.1918 5.77388 34.9925 5.62783 32.4999C5.62783 32.3044 5.62783 32.1089 5.62783 31.9134C5.62783 31.2292 5.57915 30.545 5.33573 29.9585C5.33573 29.9096 5.33572 29.9096 5.28704 29.8608C5.18967 29.9096 5.0923 29.9585 4.99493 30.0074C4.89756 30.0562 4.75151 30.0562 4.60546 30.0562C4.31335 30.0562 3.97256 29.9585 3.68045 29.763C3.33966 29.5675 3.14492 29.2743 2.85282 28.981C2.51203 28.59 2.21992 28.2479 1.87913 27.9058C1.3436 27.4171 1.10017 26.7328 0.856752 26.0975C0.808067 25.9509 0.710701 25.7554 0.662017 25.6087C0.564648 25.2666 0.418592 24.9245 0.369907 24.5824C0.175169 23.8982 0.0778019 23.2139 0.0291175 22.5297C-0.019567 22.0898 -0.0195685 21.65 0.126485 21.2101C0.272538 20.7214 0.564649 20.2326 1.05149 19.8905C1.10018 19.7928 1.10018 19.7439 1.14886 19.6461C1.68439 18.7175 1.48965 17.007 1.29492 15.3941C1.24623 14.8565 1.14886 14.3189 1.14886 13.7813C1.00281 11.8752 1.87913 8.89394 2.41466 7.28111C2.6094 6.64575 3.2423 5.96152 3.87519 5.27728C4.36204 4.73967 4.8002 4.25094 5.04362 3.81107C5.53046 2.8336 6.01731 2.05162 7.33179 1.41627C8.25679 0.976404 9.08443 0.976404 10.1555 0.92753C11.616 0.92753 13.0279 0.780909 14.4397 0.438793C14.9752 0.292172 15.5595 0.145549 16.3384 0.0478021C18.1884 -0.24544 21.1095 0.87865 22.1805 1.56288C23.1055 2.14937 23.5924 4.29981 23.7384 4.93517C24.3713 4.98404 26.5621 5.22841 27.8766 6.25476C29.3858 7.42773 28.8503 9.92029 28.6069 11.1421L28.5582 11.2887C28.3148 12.4128 28.5582 13.2926 29.2885 14.27C29.8727 15.052 30.8951 18.2288 30.6516 18.8642C30.8464 19.2063 31.0411 19.7439 30.9924 20.3304ZM4.94625 28.9321C4.55677 28.1013 4.11861 27.2216 3.58308 26.2441C3.33966 25.7554 3.09624 25.2666 2.99887 24.729C2.9015 24.1914 3.04755 23.7515 3.29097 23.2628C3.43703 23.0184 3.5344 22.7252 3.58308 22.432C3.72914 21.4545 2.85282 20.5747 1.87913 20.7702C1.48965 20.868 1.05149 21.0635 0.905439 21.5033C0.80807 21.7966 0.856752 22.0898 0.856752 22.3831C0.905436 23.0673 1.0515 23.7515 1.19755 24.3869C1.29492 24.729 1.39228 25.0223 1.48965 25.3644C1.73307 25.9997 1.92781 26.7817 2.46334 27.2216C2.85282 27.5637 3.19361 27.9547 3.5344 28.3457C3.72913 28.59 3.92387 28.7855 4.1673 28.9321C4.36203 29.0788 4.60545 29.1276 4.75151 29.0788C4.84888 29.0299 4.89757 28.981 4.94625 28.9321ZM25.1016 21.8455C24.6635 20.3304 25.0042 18.6687 25.1016 17.1047C25.1503 16.4694 24.9556 15.2964 24.7608 14.27C24.6635 13.7813 24.5661 13.2437 24.5174 12.755C24.4687 12.1685 24.3713 11.6309 24.2253 11.0444C24.0792 10.4579 23.7871 9.92029 23.5437 9.3338C23.2516 8.55182 22.0832 7.37885 20.5253 7.37885C19.2595 7.37885 18.4318 8.30745 17.3121 8.79619C16.1437 9.3338 15.2187 9.18718 14.3423 9.08943C13.2713 8.94281 12.1515 8.94281 11.0805 8.84507C10.0094 8.74732 8.88969 8.79619 7.916 9.23606C6.50415 9.92029 5.87125 10.8 5.18967 11.7286C5.04362 11.973 4.84888 12.1685 4.70283 12.4128C3.97256 13.3414 4.1673 17.9844 4.31335 19.6461C4.36204 20.0371 4.31335 20.477 4.31335 20.868C4.31335 21.259 4.41072 21.65 4.45941 22.0898C4.50809 22.6274 4.50809 23.1651 4.50809 23.7027V23.7515C4.55677 24.4846 4.94625 25.1689 5.18967 25.6087C6.01731 26.9772 6.6502 28.3457 7.33179 29.8608C7.67258 30.5939 8.01337 31.3758 8.40284 32.1089C8.59758 32.4511 8.79232 32.8909 9.08443 33.0864C9.52259 33.3797 10.0094 33.624 10.4963 33.8195C10.8858 34.015 11.3239 34.1616 11.6647 34.406C11.8108 34.5038 11.9568 34.6015 12.0542 34.6992C12.2976 34.8947 12.5897 35.0902 12.8818 35.1391C13.0279 35.1391 13.2226 35.0902 13.4173 35.0414C13.5147 34.9925 13.5634 34.9925 13.6608 34.9436C14.3423 34.7481 15.0239 34.8459 15.7055 34.9925C16.1437 35.0414 16.5818 35.1391 16.9713 35.1391C17.8476 35.1391 18.7726 34.6992 19.5516 34.3571C20.0871 34.1128 20.6713 33.8684 21.0608 33.4285C21.7424 32.6466 21.8398 31.5713 21.8884 30.4472C21.9858 29.2254 22.0345 27.9547 23.0082 27.0261C23.2029 26.8306 23.4463 26.6351 23.6898 26.4885C23.7871 26.4396 23.8845 26.3907 23.9332 26.3418C24.3713 26.0486 24.7608 25.6576 25.0529 25.2178C25.345 24.7779 25.4424 24.4358 25.5398 23.8982C25.7345 23.1162 25.2963 22.5297 25.1016 21.8455ZM30.1648 20.2326C30.2135 19.7439 29.9701 19.2552 29.5319 18.9619C29.0937 18.6687 28.7043 18.6198 28.2174 18.8642C27.4385 19.2063 26.9516 20.477 26.9516 21.259C26.9516 21.7966 27.0003 22.3831 27.1464 22.8718C27.2924 23.3117 27.195 23.7515 27.1464 24.1914C27.049 24.6801 26.6595 25.0223 26.5621 25.4621C26.5135 25.7554 26.4648 26.0486 26.4161 26.293C26.3187 26.7817 26.2214 27.2216 26.0753 27.7103L26.0266 27.8569C25.9779 27.9547 25.9779 28.0524 25.9292 28.1502C26.2214 28.2968 26.4648 28.3945 26.7082 28.3457C26.9029 28.2968 27.0977 28.0035 27.2437 27.7103L27.3898 27.5148C28.4122 25.8531 29.0451 23.947 29.6293 22.1387L30.0187 20.9657C30.0674 20.7214 30.1648 20.477 30.1648 20.2326Z" fill="#F5F5F5"/>
</g>
<defs>
<clipPath id="clip0_0_1">
<rect width="263" height="370" fill="white" transform="translate(-116 -95)"/>
</clipPath>
</defs>
</svg>
