<svg width="54" height="45" viewBox="0 0 54 45" fill="none" xmlns="http://www.w3.org/2000/svg">
<rect width="54" height="45" fill="#E5E5E5"/>
<g id="RT" clip-path="url(#clip0_0_1)">
<path id="Background" fill-rule="evenodd" clip-rule="evenodd" d="M-105 -29C-105 -34.5229 -100.523 -39 -95 -39H148C153.523 -39 158 -34.5228 158 -29V321C158 326.523 153.523 331 148 331H-95C-100.523 331 -105 326.523 -105 321L-105 -29Z" fill="#4CB9FC"/>
<path id="Twitter" fill-rule="evenodd" clip-rule="evenodd" d="M53.9369 5.28859C53.8595 5.19647 53.7318 5.16521 53.6228 5.21545C52.0084 5.93842 50.3099 6.45818 48.5606 6.76524C50.4178 5.35502 51.8016 3.40216 52.5111 1.1629C52.5454 1.05571 52.51 0.938469 52.4232 0.868684C52.3358 0.798899 52.2147 0.789966 52.119 0.847469C50.0273 2.09969 47.7619 2.98233 45.3827 3.47194C43.2744 1.26339 40.3304 0 37.2835 0C31.087 0 26.0463 5.08816 26.0463 11.3426C26.0463 12.099 26.1188 12.8483 26.2626 13.5757C17.6801 13.0409 9.65507 8.88167 4.19851 2.12593C4.14265 2.0567 4.05803 2.01818 3.96954 2.02711C3.8816 2.03381 3.80306 2.08406 3.75882 2.16054C2.7633 3.88451 2.23733 5.85691 2.23733 7.86337C2.23733 11.3409 3.80251 14.5923 6.46774 16.7378C5.09558 16.5714 3.7555 16.1354 2.54705 15.4582C2.46575 15.4119 2.36454 15.4124 2.28323 15.4599C2.20193 15.5068 2.1505 15.5939 2.14829 15.6888L2.14718 15.8339C2.14718 20.8283 5.40751 25.2136 10.0461 26.6696C8.82436 26.8683 7.55673 26.8549 6.31067 26.6149C6.21886 26.5976 6.12263 26.6294 6.05958 26.7009C5.99708 26.7723 5.97606 26.8722 6.00482 26.9627C7.39579 31.3452 11.2606 34.4185 15.7593 34.8015C12.0067 37.5767 7.57111 39.0388 2.88442 39.0388C2.02108 39.0388 1.15166 38.9869 0.299936 38.8859C0.178261 38.8719 0.0576925 38.945 0.0156594 39.0628C-0.0263737 39.1818 0.0184248 39.3146 0.123508 39.3822C5.19513 42.6654 11.0593 44.4 17.0828 44.4C36.7858 44.4 48.5595 28.2445 48.5595 12.6261C48.5595 12.1912 48.5512 11.7585 48.534 11.3269C50.6595 9.75762 52.484 7.83658 53.9552 5.61295C54.021 5.51357 54.0138 5.38126 53.9369 5.28859Z" fill="#1DA1F2"/>
</g>
<defs>
<clipPath id="clip0_0_1">
<rect width="263" height="370" fill="white" transform="translate(-105 -39)"/>
</clipPath>
</defs>
</svg>
